#!OML:ASF E:\Mandelcareful walks\Project 1\Capture day 1\Session 1\Subject1.ASF
:FULLY-SPECIFIED
:DEGREES
987
root 25.8717 15.3565 -1.19131 731.064 83.6497 725.582
lowerback 30.2622 1.71354 -7.80789
upperback 9.49584 0.792135 -0.112274
thorax -5.87456 0.689954 4.07226
lowerneck -27.8065 -6.97944 -9.1967
upperneck 31.8507 -9.2043 9.47748
head 17.3137 -3.35035 3.75453
rclavicle -3.97569e-016 3.02153e-014
rhumerus -18.5245 -4.26871 -79.3785
rradius 39.5703
rwrist -19.8982
rhand -13.8992 -27.4568
rfingers 7.12502
rthumb 12.2263 -57.0795
lclavicle -3.97569e-016 3.02153e-014
lhumerus -21.4398 -10.4525 83.1879
lradius 42.6782
lwrist 23.8256
lhand -26.0391 -11.0036
lfingers 7.12502
lthumb 0.507958 18.9756
rfemur -43.8428 -12.2875 7.10021
rtibia 36.7122
rfoot 6.78513 -4.01167
rtoes -0.814176
lfemur -20.1707 9.60613 -20.1801
ltibia 59.0722
lfoot -38.1937 9.5678
ltoes 2.15243
988
root 25.9692 15.3635 -1.06352 734.148 84.044 728.592
lowerback 30.691 1.49023 -7.58602
upperback 9.48369 0.557966 -0.00252006
thorax -6.06119 0.589752 4.14703
lowerneck -27.8314 -6.66952 -8.96843
upperneck 31.8172 -8.77234 9.29733
head 17.2128 -3.17363 3.73377
rclavicle -1.51076e-014 -2.14687e-014
rhumerus -18.4537 -3.82289 -79.3494
rradius 39.5471
rwrist -20.0496
rhand -14.0657 -27.3972
rfingers 7.12502
rthumb 12.0657 -57.0294
lclavicle -1.51076e-014 -2.14687e-014
lhumerus -21.4644 -10.5708 83.3249
lradius 42.5197
lwrist 23.7879
lhand -25.863 -10.7907
lfingers 7.12502
lthumb 0.678106 19.1879
rfemur -44.058 -12.2489 7.07328
rtibia 38.1112
rfoot 5.38521 -4.06949
rtoes -0.64218
lfemur -19.6926 9.25868 -19.8763
ltibia 58.6444
lfoot -37.9546 9.68744
ltoes 1.07259
989
root 26.0816 15.3722 -0.943807 736.414 84.2489 730.493
lowerback 30.5525 1.33368 -7.04791
upperback 9.37703 0.521398 0.143189
thorax -6.1254 0.572396 4.01344
lowerneck -27.7891 -6.62107 -8.91946
upperneck 31.8772 -8.63196 9.05777
head 17.1928 -3.14541 3.65142
rclavicle -7.35503e-015 -2.20651e-014
rhumerus -18.706 -3.70039 -79.0553
rradius 39.4445
rwrist -20.139
rhand -14.2232 -27.2097
rfingers 7.12502
rthumb 11.9139 -56.8507
lclavicle -7.35503e-015 -2.20651e-014
lhumerus -21.6586 -10.862 83.7531
lradius 42.3238
lwrist 23.6528
lhand -25.6966 -10.9129
lfingers 7.12502
lthumb 0.838765 19.0652
rfemur -44.6255 -12.4339 7.33714
rtibia 39.454
rfoot 4.30922 -3.85949
rtoes -1.0062
lfemur -19.3818 9.03425 -19.5544
ltibia 58.1478
lfoot -37.8142 9.73345
ltoes 0.103438
990
root 26.2168 15.3875 -0.83029 739.079 84.3097 732.851
lowerback 30.1727 1.17997 -6.44216
upperback 9.47891 0.540146 0.193016
thorax -5.84564 0.573283 3.71419
lowerneck -27.884 -6.51148 -8.72504
upperneck 32.0031 -8.37588 8.59433
head 17.1985 -3.08185 3.47004
rclavicle 2.62396e-014 1.27222e-014
rhumerus -18.5974 -3.89818 -78.8527
rradius 39.1032
rwrist -19.9305
rhand -14.0971 -27.185
rfingers 7.12502
rthumb 12.0355 -56.8189
lclavicle 2.62396e-014 1.27222e-014
lhumerus -21.5637 -11.1229 84.0989
lradius 42.1594
lwrist 23.4509
lhand -25.668 -11.2858
lfingers 7.12502
lthumb 0.866443 18.6922
rfemur -45.1476 -12.8987 7.6463
rtibia 40.8617
rfoot 3.2529 -3.30407
rtoes -1.18689
lfemur -18.7772 8.88746 -19.3409
ltibia 57.61
lfoot -37.8607 9.67451
ltoes -0.911016
991
root 26.3592 15.3983 -0.711721 744.089 84.2259 737.862
lowerback 30.1425 1.08993 -6.23189
upperback 9.5452 0.496505 0.159058
thorax -5.75436 0.553679 3.56967
lowerneck -27.7468 -6.26118 -8.49885
upperneck 32.1345 -7.96988 8.21696
head 17.1421 -2.94515 3.36121
rclavicle 1.09332e-014 -1.39149e-015
rhumerus -18.5985 -3.94555 -78.7226
rradius 38.6753
rwrist -19.6352
rhand -13.9488 -27.1905
rfingers 7.12502
rthumb 12.1784 -56.816
lclavicle 1.09332e-014 -1.39149e-015
lhumerus -21.7434 -11.2038 84.3736
lradius 42.1504
lwrist 23.3667
lhand -25.4578 -11.3569
lfingers 7.12502
lthumb 1.06944 18.6202
rfemur -45.367 -13.2985 7.57685
rtibia 42.3142
rfoot 2.02912 -2.82863
rtoes -0.428773
lfemur -17.7827 8.82288 -19.3758
ltibia 57.0083
lfoot -37.8232 9.68164
ltoes -2.15058
